<?xml version="1.0" encoding="UTF-8"?>
<!DOCTYPE svg PUBLIC "-//W3C//DTD SVG 1.1//EN" "http://www.w3.org/Graphics/SVG/1.1/DTD/svg11.dtd">
<svg version="1.1" xmlns="http://www.w3.org/2000/svg" xmlns:xlink="http://www.w3.org/1999/xlink" x="0" y="0" width="841.89" height="595.276" viewBox="0, 0, 841.89, 595.276">
  <g id="P">
    <g>
      <path d="M22.166,145.989 C22.166,145.989 82.152,254.781 93.976,286.574 C105.8,318.367 133.263,398.498 133.263,398.498 C133.263,398.498 140.368,400.236 163.175,391.197 C185.981,382.158 188.42,379.433 188.42,379.433 C188.42,379.433 183.305,358.693 175.734,332.148 C168.163,305.603 162.28,292.981 162.28,292.981 C162.28,292.981 242.773,239.141 224.331,173.285 C205.888,107.429 164.847,106.361 118.659,114.111 C72.471,121.861 22.166,145.989 22.166,145.989 z" fill="#FFFFFF"/>
      <path d="M22.166,145.989 C22.166,145.989 82.152,254.781 93.976,286.574 C105.8,318.367 133.263,398.498 133.263,398.498 C133.263,398.498 140.368,400.236 163.175,391.197 C185.981,382.158 188.42,379.433 188.42,379.433 C188.42,379.433 183.305,358.693 175.734,332.148 C168.163,305.603 162.28,292.981 162.28,292.981 C162.28,292.981 242.773,239.141 224.331,173.285 C205.888,107.429 164.847,106.361 118.659,114.111 C72.471,121.861 22.166,145.989 22.166,145.989 z" fill-opacity="0" stroke="#B4DC00" stroke-width="14"/>
    </g>
    <g>
      <path d="M17.089,140.961 C17.089,140.961 77.075,249.753 88.899,281.546 C100.723,313.338 128.186,393.47 128.186,393.47 C128.186,393.47 135.291,395.208 158.098,386.169 C180.904,377.13 183.343,374.404 183.343,374.404 C183.343,374.404 178.228,353.665 170.657,327.12 C163.086,300.575 157.203,287.953 157.203,287.953 C157.203,287.953 237.696,234.113 219.254,168.257 C200.811,102.401 159.77,101.333 113.582,109.083 C67.394,116.833 17.089,140.961 17.089,140.961 z" fill="#FFFFFF"/>
      <path d="M17.089,140.961 C17.089,140.961 77.075,249.753 88.899,281.546 C100.723,313.338 128.186,393.47 128.186,393.47 C128.186,393.47 135.291,395.208 158.098,386.169 C180.904,377.13 183.343,374.404 183.343,374.404 C183.343,374.404 178.228,353.665 170.657,327.12 C163.086,300.575 157.203,287.953 157.203,287.953 C157.203,287.953 237.696,234.113 219.254,168.257 C200.811,102.401 159.77,101.333 113.582,109.083 C67.394,116.833 17.089,140.961 17.089,140.961 z" fill-opacity="0" stroke="#000000" stroke-width="10"/>
      <path d="M142.971,105.849 C160.89,105.344 179.105,108.897 192.933,121.037 C206.869,133.272 214.207,150.845 219.253,168.257 C237.696,234.113 157.203,287.953 157.203,287.953 C157.203,287.953 163.086,300.575 170.656,327.12 C178.228,353.665 183.343,374.404 183.343,374.404 C183.343,374.404 180.904,377.13 158.098,386.169 C135.291,395.208 128.186,393.47 128.186,393.47 C128.186,393.47 100.723,313.338 88.899,281.546 C77.075,249.753 17.089,140.961 17.089,140.961 C17.089,140.961 67.394,116.833 113.582,109.083 C122.603,107.681 124.775,107.224 134.789,106.31 C137.509,106.061 140.244,106.002 142.971,105.849 z M145.389,112.792 C135.093,112.907 124.887,114.358 114.74,115.987 C111.42,116.544 108.013,117.199 104.525,117.949 C90.921,120.873 76.399,125.155 61.468,130.438 C51.035,134.13 41.023,138.087 31.797,142.044 C28.575,143.435 30.224,142.716 26.853,144.206 C29.507,149.052 32.143,153.909 34.778,158.766 C43.443,174.758 52.109,190.972 60.2,206.42 C61.245,208.415 62.274,210.386 63.288,212.333 C79.612,243.686 90.927,266.918 95.46,279.106 C99.381,289.648 105.227,306.047 112.494,326.793 C112.728,327.461 112.963,328.133 113.199,328.808 C117.976,342.458 123.051,357.08 128.097,371.702 C129.863,376.82 131.5,381.572 132.966,385.836 L133.135,386.329 C134.502,386.148 133.756,386.261 135.371,385.974 C140.48,384.998 147.144,382.98 155.518,379.661 C162.176,376.97 168.876,374.329 175.284,371.073 C174.558,368.208 173.812,365.348 173.067,362.489 C170.298,351.907 167.222,340.601 163.925,329.04 C160.664,317.605 157.489,307.949 154.533,300.03 C153.508,297.285 152.586,294.958 151.785,293.045 C151.51,292.389 151.27,291.833 151.069,291.379 C150.956,291.123 150.885,290.967 150.859,290.909 L148.324,285.47 L153.311,282.134 C153.4,282.075 153.607,281.934 153.925,281.712 C154.477,281.327 155.123,280.865 155.856,280.329 C157.976,278.78 160.348,276.955 162.908,274.87 C170.242,268.899 177.58,262.072 184.412,254.525 C208.993,227.371 220.5,198.668 212.513,170.145 C204.371,141.072 191.721,124.753 174.163,117.543 C164.374,113.491 155.794,113.011 145.389,112.792 z" fill="#FFFFFF"/>
      <path d="M17.089,140.961 C17.089,140.961 77.075,249.753 88.899,281.546 C100.723,313.338 128.186,393.47 128.186,393.47 C128.186,393.47 135.291,395.208 158.098,386.169 C180.904,377.13 183.343,374.404 183.343,374.404 C183.343,374.404 178.228,353.665 170.657,327.12 C163.086,300.575 157.203,287.953 157.203,287.953 C157.203,287.953 237.696,234.113 219.254,168.257 C200.811,102.401 159.77,101.333 113.582,109.083 C67.394,116.833 17.089,140.961 17.089,140.961 z" fill-opacity="0" stroke="#000000" stroke-width="6"/>
    </g>
    <path d="M143.007,105.866 C160.475,105.363 177.767,109.663 190.053,122.796 C200.506,133.968 206.168,148.519 210.36,162.974 C228.802,228.829 148.31,282.669 148.31,282.669 C148.31,282.669 154.192,295.292 161.763,321.837 C169.334,348.381 174.449,369.121 174.449,369.121 C174.449,369.121 172.011,371.847 149.204,380.886 C126.397,389.924 123.896,388.041 123.896,388.041 C123.896,388.041 94.646,306.492 82.822,274.699 C70.998,242.906 18.622,139.272 18.622,139.272 C18.622,139.272 59.687,118.076 105.875,110.326 C115.582,108.726 125.301,107.063 135.118,106.291 C137.744,106.085 140.378,106.008 143.007,105.866 z M143.355,110.86 L139.364,111.014 C130.664,111.488 122.38,112.626 106.702,115.257 C90.823,117.921 74.464,122.375 58.171,128.117 C48.456,131.541 39.367,135.21 31.163,138.877 C27.831,140.381 29.767,139.498 25.364,141.543 L25.95,142.71 C28.227,147.245 30.765,152.319 33.497,157.807 C41.304,173.49 49.111,189.362 56.4,204.442 C57.207,206.112 58.004,207.764 58.79,209.398 C73.008,238.946 83.089,261.075 87.508,272.956 C91.517,283.736 97.757,300.842 105.624,322.578 C105.778,323.004 105.778,323.004 105.932,323.429 C110.913,337.194 116.231,351.941 121.536,366.689 C123.393,371.85 125.116,376.643 126.661,380.944 L127.355,382.878 C127.904,382.782 127.494,382.857 128.579,382.616 C132.723,381.642 138.882,379.598 147.362,376.237 C157.19,372.342 163.91,369.356 168.06,367.184 L168.719,366.832 L168.685,366.694 C167.941,363.757 167.078,360.406 166.108,356.699 C163.335,346.104 160.256,334.784 156.955,323.208 C153.679,311.722 150.488,302.016 147.513,294.048 C146.479,291.277 145.548,288.926 144.736,286.989 C144.455,286.32 144.211,285.753 144.005,285.286 C143.886,285.019 143.81,284.851 143.778,284.781 L141.967,280.896 L145.53,278.513 C145.629,278.447 145.847,278.298 146.176,278.069 C146.739,277.675 147.398,277.205 148.143,276.661 C150.29,275.091 152.689,273.245 155.277,271.138 C162.685,265.106 170.096,258.212 177.001,250.584 C201.996,222.973 213.756,193.641 205.545,164.322 C197.324,134.964 184.789,119.626 166.968,113.8 C161.753,112.104 156.297,111.265 150.83,110.965 C148.342,110.829 145.847,110.895 143.355,110.86 z" fill="#D8D8D8"/>
    <path d="M68.056,155.386 C68.056,155.386 85.362,177.497 93.589,191.095 C103.253,207.069 118.366,235.256 118.366,235.256 C118.366,235.256 146.243,214.941 153.114,205.901 C159.984,196.861 172.596,179.995 162.604,160.202 C152.214,139.621 135.358,142.3 123.262,142.162 C111.165,142.025 68.056,155.386 68.056,155.386 z" fill="#D9D9D9"/>
    <g>
      <path d="M79.815,160.529 C79.815,160.529 97.15,182.734 105.394,196.387 C115.078,212.427 130.227,240.727 130.227,240.727 C130.227,240.727 158.092,220.372 164.955,211.308 C171.818,202.245 184.416,185.334 174.399,165.461 C163.984,144.799 147.126,147.469 135.025,147.318 C122.924,147.167 79.815,160.529 79.815,160.529 z" fill="#000000"/>
      <path d="M144.141,145.277 C150.661,145.701 147.879,145.389 152.506,146.018 C162.749,147.812 170.542,153.365 176.185,164.561 C180.982,174.078 181.235,183.589 177.893,193.101 C175.552,199.768 172.407,204.78 166.549,212.516 C164.199,215.619 159.554,220.005 153.092,225.418 C151.976,226.353 150.813,227.311 149.609,228.291 C145.626,231.531 141.361,234.858 137.098,238.09 C135.605,239.221 134.22,240.26 132.976,241.184 C132.54,241.507 132.153,241.793 131.819,242.039 C131.618,242.187 131.479,242.289 131.406,242.342 L129.549,243.699 L128.463,241.671 C128.406,241.564 128.295,241.356 128.133,241.054 C127.862,240.551 127.548,239.966 127.193,239.308 C126.178,237.427 125.043,235.33 123.814,233.072 C120.303,226.622 116.746,220.172 113.361,214.153 C112.943,213.41 112.53,212.677 112.122,211.956 C108.914,206.281 106.068,201.372 103.682,197.421 C101.577,193.934 98.747,189.678 95.341,184.826 C94.618,183.797 93.873,182.746 93.107,181.676 C89.855,177.13 86.369,172.419 82.883,167.818 C81.663,166.207 80.53,164.725 79.513,163.406 C79.157,162.944 78.842,162.536 78.57,162.186 C78.407,161.976 78.296,161.833 78.239,161.76 L76.456,159.476 L79.223,158.618 C79.308,158.592 79.472,158.542 79.71,158.469 C80.106,158.347 80.567,158.206 81.09,158.047 C82.581,157.594 84.264,157.09 86.102,156.546 C91.352,154.994 96.797,153.442 102.152,151.992 C104.321,151.405 106.435,150.846 108.484,150.319 C121.048,147.086 130.271,145.259 135.05,145.318 C136.114,145.332 136.961,145.327 139.07,145.302 L141.335,145.283 L144.141,145.277 z M142.259,147.278 C136.573,147.326 138.984,147.321 135.025,147.318 C122.924,147.167 79.815,160.529 79.815,160.529 C79.815,160.529 97.15,182.734 105.394,196.387 C115.078,212.427 130.227,240.727 130.227,240.727 C130.227,240.727 158.092,220.372 164.955,211.308 C171.818,202.245 184.416,185.334 174.399,165.461 C166.924,151.141 158.012,147.746 142.259,147.278 z" fill="#FFFFFF"/>
    </g>
    <path d="M142.135,104.566 C160.054,104.061 178.269,107.613 192.097,119.753 C206.033,131.988 213.371,149.561 218.418,166.974 C236.86,232.829 156.368,286.669 156.367,286.669 C156.368,286.669 162.25,299.292 169.821,325.837 C177.392,352.381 182.507,373.121 182.507,373.121 C182.507,373.121 180.068,375.847 157.262,384.886 C134.455,393.924 127.35,392.187 127.35,392.187 C127.35,392.187 99.887,312.055 88.063,280.262 C76.239,248.47 16.254,139.677 16.254,139.677 C16.254,139.677 66.558,115.55 112.746,107.8 C121.768,106.397 123.939,105.94 133.953,105.026 C136.673,104.778 139.408,104.719 142.135,104.566 z M144.554,111.508 C134.257,111.624 124.051,113.075 113.904,114.703 C110.584,115.26 107.177,115.916 103.689,116.665 C90.085,119.59 75.563,123.872 60.633,129.155 C50.2,132.846 40.187,136.804 30.961,140.76 C27.74,142.152 29.388,141.432 26.017,142.922 C28.671,147.769 31.307,152.625 33.942,157.482 C42.608,173.475 51.273,189.688 59.364,205.137 C60.409,207.131 61.439,209.103 62.452,211.05 C78.776,242.403 90.091,265.635 94.624,277.822 C98.545,288.365 104.391,304.763 111.658,325.51 C111.892,326.178 112.127,326.85 112.363,327.525 C117.14,341.174 122.215,355.797 127.261,370.419 C129.028,375.536 130.664,380.288 132.13,384.553 L132.3,385.046 C133.667,384.865 132.921,384.978 134.535,384.691 C139.644,383.715 146.308,381.697 154.683,378.378 C161.34,375.686 168.04,373.046 174.448,369.789 C173.723,366.924 172.976,364.065 172.231,361.205 C169.462,350.623 166.387,339.318 163.089,327.757 C159.828,316.322 156.654,306.666 153.697,298.747 C152.672,296.001 151.751,293.675 150.949,291.762 C150.674,291.105 150.435,290.55 150.234,290.096 C150.12,289.84 150.049,289.683 150.023,289.626 L147.488,284.187 L152.476,280.851 C152.564,280.792 152.771,280.65 153.089,280.429 C153.641,280.044 154.287,279.582 155.02,279.046 C157.14,277.497 159.512,275.671 162.072,273.586 C169.406,267.616 176.744,260.789 183.576,253.242 C208.157,226.088 219.665,197.385 211.677,168.861 C203.536,139.789 190.885,123.469 173.328,116.26 C163.538,112.208 154.959,111.728 144.554,111.508 z" fill="#FFFFFF"/>
    <path d="M16.682,140.177 C16.682,140.177 76.667,248.97 88.491,280.762 C100.315,312.555 127.778,392.687 127.778,392.687 C127.778,392.687 134.883,394.424 157.69,385.386 C180.496,376.347 182.935,373.621 182.935,373.621 C182.935,373.621 177.82,352.881 170.249,326.337 C162.678,299.792 156.796,287.169 156.796,287.169 C156.796,287.169 237.288,233.329 218.846,167.474 C200.403,101.618 159.362,100.55 113.174,108.3 C66.986,116.05 16.682,140.177 16.682,140.177 z" fill-opacity="0" stroke="#000000" stroke-width="10"/>
    <path d="M156.275,316.23 C166.561,318.775 170.575,324.101 169.806,333.565 C169.038,343.029 160.999,343.798 156.717,343.798 C149.038,343.798 143.689,339.734 143.689,331.321 C143.689,320.561 148.363,314.273 156.275,316.23 z" fill="#000000" fill-opacity="0.25"/>
    <path d="M130.577,344.268 C143.094,347.632 147.979,354.676 147.043,367.191 C146.108,379.707 136.326,380.723 131.115,380.723 C121.77,380.723 115.26,375.35 115.26,364.224 C115.26,349.995 120.948,341.68 130.577,344.268 z" fill="#000000" fill-opacity="0.25"/>
    <path d="M161.996,250.791 C172.281,253.335 178.833,252.292 178.064,261.756 C177.296,271.22 166.72,278.359 162.438,278.359 C154.758,278.359 152.952,273.86 152.952,265.447 C152.952,254.686 154.083,248.834 161.996,250.791 z" fill="#000000" fill-opacity="0.25"/>
    <path d="M126.755,242.91 C132.18,252.011 137.53,255.934 130.262,262.044 C122.994,268.155 110.48,265.658 107.469,262.614 C102.067,257.155 103.995,252.707 109.976,246.789 C117.625,239.221 122.581,235.909 126.755,242.91 z" fill="#000000" fill-opacity="0.25"/>
    <path d="M159.621,208.377 C169.534,210.878 173.403,216.114 172.662,225.417 C171.921,234.721 164.174,235.477 160.046,235.477 C152.645,235.477 147.489,231.482 147.489,223.212 C147.489,212.634 151.994,206.453 159.621,208.377 z" fill="#000000" fill-opacity="0.25"/>
    <path d="M106.444,309.951 C116.729,312.496 120.743,317.822 119.975,327.286 C119.206,336.75 115.332,336.239 111.345,336.405 C104.295,311.744 98.531,307.994 106.444,309.951 z" fill="#000000" fill-opacity="0.25"/>
    <path d="M85.787,255.132 C95.701,257.633 99.57,262.87 98.829,272.173 C98.088,281.477 92.118,280.262 87.991,280.262 C79.815,258.597 78.161,253.208 85.787,255.132 z" fill="#000000" fill-opacity="0.25"/>
    <path d="M199.303,198.078 C211.82,201.443 216.704,208.487 215.769,221.002 C214.834,233.517 205.052,234.534 199.841,234.534 C190.495,234.534 183.986,229.16 183.986,218.035 C183.986,203.805 189.674,195.49 199.303,198.078 z" fill="#000000" fill-opacity="0.25"/>
    <path d="M90.672,208.644 C100.958,211.188 104.972,216.514 104.203,225.978 C103.435,235.442 95.396,236.211 91.114,236.211 C83.435,236.211 78.085,232.148 78.085,223.735 C78.085,212.974 82.76,206.686 90.672,208.644 z" fill="#000000" fill-opacity="0.25"/>
    <path d="M126.427,287.178 C131.624,288.312 133.652,290.686 133.264,294.905 C132.876,299.124 128.814,299.467 126.65,299.467 C122.769,299.467 120.066,297.656 120.066,293.905 C120.066,289.108 122.428,286.305 126.427,287.178 z" fill="#000000" fill-opacity="0.25"/>
    <path d="M187.747,176.067 C192.944,177.201 194.973,179.575 194.584,183.794 C194.196,188.013 190.134,188.356 187.97,188.356 C184.09,188.356 181.387,186.545 181.387,182.794 C181.387,177.997 183.749,175.194 187.747,176.067 z" fill="#000000" fill-opacity="0.25"/>
  </g>
  <g id="a">
    <g>
      <path d="M228.231,241.072 L233.898,261.065 C233.898,261.065 198.684,257.691 186.644,277.181 C174.604,296.671 178.128,320.961 185.22,335.352 C192.312,349.743 211.196,374.894 234.04,369.289 C254.555,364.257 268.069,347.528 268.069,347.528 L274.022,356.21 C274.022,356.21 278.584,356.835 289.369,351.176 C300.154,345.516 302.432,340.425 302.432,340.425 C302.432,340.425 290.184,321.046 278.875,290.114 C267.566,259.182 270.157,236.266 270.157,236.266 C270.157,236.266 256.317,235.615 249.13,236.266 C241.314,236.973 228.231,241.072 228.231,241.072 z" fill="#FFFFFF"/>
      <path d="M228.231,241.072 L233.898,261.065 C233.898,261.065 198.684,257.691 186.644,277.181 C174.604,296.671 178.128,320.961 185.22,335.352 C192.312,349.743 211.196,374.894 234.04,369.289 C254.555,364.257 268.069,347.528 268.069,347.528 L274.022,356.21 C274.022,356.21 278.584,356.835 289.369,351.176 C300.154,345.516 302.432,340.425 302.432,340.425 C302.432,340.425 290.184,321.046 278.875,290.114 C267.566,259.182 270.157,236.266 270.157,236.266 C270.157,236.266 256.317,235.615 249.13,236.266 C241.314,236.973 228.231,241.072 228.231,241.072 z" fill-opacity="0" stroke="#B4DC01" stroke-width="14"/>
    </g>
    <path d="M222.245,236.572 L227.913,256.565 C227.913,256.565 192.698,253.191 180.658,272.681 C168.619,292.171 172.143,316.461 179.235,330.852 C186.327,345.243 205.21,370.394 228.054,364.789 C248.569,359.757 262.083,343.028 262.083,343.028 L268.036,351.71 C268.036,351.71 272.599,352.335 283.384,346.676 C294.169,341.016 296.446,335.925 296.446,335.925 C296.446,335.925 284.199,316.546 272.889,285.614 C261.58,254.682 264.171,231.766 264.171,231.766 C264.171,231.766 250.331,231.115 243.145,231.766 C235.328,232.473 222.245,236.572 222.245,236.572 z" fill="#FFFFFF"/>
    <path d="M227.189,276.699 C227.189,276.699 210.455,279.333 201.594,287.066 C197.569,290.579 190.858,297.482 197.315,313.103 C203.772,328.724 214.302,331.551 219.567,330.842 C237.046,328.488 243.636,314.376 243.636,314.376 C243.636,314.376 237.865,303.426 235.224,297.169 C232.583,290.911 227.189,276.699 227.189,276.699 z" fill="#D9D9D9"/>
    <g>
      <path d="M234.189,279.699 C234.189,279.699 217.455,282.333 208.594,290.066 C204.569,293.579 197.858,300.482 204.315,316.103 C210.772,331.724 221.302,334.551 226.567,333.842 C244.046,331.488 250.636,317.376 250.636,317.376 C250.636,317.376 244.865,306.426 242.224,300.169 C239.583,293.911 234.189,279.699 234.189,279.699 z" fill="#000000"/>
      <path d="M235.482,277.471 L236.059,278.99 C236.076,279.035 236.076,279.035 236.158,279.251 C236.271,279.547 236.333,279.712 236.44,279.991 C236.744,280.788 237.084,281.677 237.451,282.634 C238.5,285.369 239.557,288.103 240.556,290.654 C240.668,290.94 240.668,290.94 240.78,291.225 C242.135,294.679 243.258,297.474 244.066,299.391 C244.784,301.09 245.784,303.255 247.005,305.772 C247.192,306.158 247.384,306.55 247.579,306.949 C248.635,309.099 249.767,311.341 250.898,313.542 C251.295,314.312 251.663,315.022 251.992,315.655 C252.19,316.034 252.331,316.302 252.406,316.444 L252.869,317.322 L252.448,318.222 C252.16,318.839 251.597,319.85 250.734,321.123 C249.314,323.217 247.546,325.305 245.401,327.254 C240.463,331.743 234.298,334.819 226.834,335.824 C218.157,336.992 208.204,330.748 202.466,316.867 C199.358,309.348 198.893,303.106 200.626,297.911 C201.906,294.077 204.013,291.409 207.279,288.559 C210.071,286.123 213.691,284.047 217.944,282.282 C221.435,280.833 225.158,279.672 228.879,278.766 C230.18,278.45 231.39,278.188 232.477,277.976 C232.86,277.902 233.202,277.839 233.497,277.788 C233.678,277.756 233.807,277.735 233.878,277.724 L235.482,277.471 z M234.189,279.699 C234.189,279.699 217.455,282.333 208.594,290.066 C204.569,293.579 197.858,300.482 204.315,316.103 C210.772,331.724 221.302,334.551 226.567,333.842 C244.046,331.488 250.636,317.376 250.636,317.376 C250.636,317.376 244.865,306.426 242.224,300.169 C239.583,293.911 234.189,279.699 234.189,279.699 z" fill="#FFFFFF"/>
    </g>
    <path d="M256.73,227.975 C256.73,227.975 253.533,251.068 264.842,282 C276.152,312.932 289.005,332.133 289.005,332.133 C289.005,332.133 286.728,337.225 275.943,342.884 C265.158,348.544 260.595,347.919 260.595,347.919 L256.704,337.433 C256.704,337.433 241.293,357.741 220.287,359.971 C197.527,362.388 183.002,337.832 175.91,323.441 C168.818,309.05 166.196,292.593 178.236,273.103 C190.276,253.613 222.818,253.577 222.818,253.577 L218.236,234.477 C218.236,234.477 227.25,231.21 235.066,230.502 C242.253,229.852 256.73,227.975 256.73,227.975 z M251.355,233.691 C248.822,234.006 250.523,233.796 246.251,234.313 C245.657,234.383 245.074,234.452 244.503,234.519 C240.833,234.947 237.775,235.278 235.517,235.482 C234.736,235.553 233.911,235.656 233.047,235.789 C230.91,236.119 228.601,236.623 226.221,237.255 L224.181,237.827 L227.68,252.41 L229.158,258.57 L222.824,258.577 C222.768,258.577 222.624,258.579 222.396,258.585 C221.993,258.595 221.519,258.613 220.981,258.642 C219.418,258.726 217.666,258.876 215.776,259.11 C210.39,259.775 205.013,260.966 200.051,262.793 C192.081,265.728 186.03,270 182.49,275.731 C172.677,291.616 172.739,305.696 180.395,321.23 C185.067,330.711 189.994,338.494 195.822,344.538 C203.233,352.224 211.123,355.916 219.76,354.999 C227.419,354.186 234.986,350.529 242.112,344.882 C245.036,342.565 247.679,340.074 249.983,337.587 C250.784,336.723 251.482,335.924 252.072,335.215 C252.411,334.807 252.629,334.531 252.721,334.41 L258.224,327.158 L261.391,335.693 L263.901,342.456 C267.308,341.573 270.499,340.052 273.619,338.457 C277.878,336.222 280.909,333.992 282.926,331.908 L282.941,331.892 C281.291,329.216 279.75,326.475 278.221,323.729 C273.328,314.829 268.441,304.67 263.882,293.415 C262.594,290.233 261.347,287 260.147,283.717 C254.164,267.701 251.087,250.777 251.355,233.691 z" fill="#D9D9D9"/>
    <path d="M252.956,231.48 C256.695,231.511 260.435,231.597 264.171,231.766 C264.171,231.766 261.58,254.682 272.889,285.614 C284.199,316.546 296.446,335.925 296.446,335.924 C296.446,335.925 294.169,341.016 283.384,346.676 C272.599,352.335 268.036,351.71 268.036,351.71 L262.083,343.027 C262.083,343.028 248.569,359.757 228.054,364.789 C205.21,370.394 186.327,345.243 179.235,330.852 C172.143,316.461 168.619,292.171 180.658,272.681 C192.698,253.191 227.913,256.565 227.913,256.565 L222.245,236.572 C222.245,236.572 235.328,232.473 243.145,231.766 C246.406,231.467 249.686,231.508 252.956,231.48 z M251.555,238.477 C248.346,238.481 245.672,238.566 243.776,238.737 C242.029,238.895 239.727,239.288 237.041,239.875 C235.666,240.175 234.217,240.52 232.716,240.901 L230.885,241.385 L234.647,254.656 L237.44,264.51 L227.245,263.533 C227.049,263.514 226.595,263.48 225.915,263.443 C219.186,263.083 211.331,263.539 204.043,265.418 C195.82,267.537 189.826,271.161 186.614,276.36 C177.35,291.356 177.883,312.274 185.514,327.757 C189.408,335.66 195.586,344.15 202.34,350.045 C210.399,357.079 218.488,359.929 226.386,357.991 C233.01,356.366 239.358,353.206 245.274,348.939 C248.467,346.636 251.324,344.162 253.79,341.698 C254.643,340.845 255.381,340.061 255.998,339.368 C256.345,338.979 256.56,338.725 256.638,338.629 L262.543,331.319 L267.856,339.069 L271.354,344.171 C274.423,343.312 277.304,341.923 280.131,340.477 C282.886,339.002 285.616,337.388 287.917,335.25 C286.422,332.676 285.032,330.043 283.639,327.414 C278.571,317.723 273.51,306.713 268.789,294.576 C267.947,292.411 267.122,290.224 266.315,288.018 C260.563,272.17 256.88,255.451 256.924,238.541 C254.351,238.478 256.141,238.515 251.555,238.477 z" fill="#FFFFFF"/>
    <path d="M222.745,237.072 L228.413,257.065 C228.413,257.065 193.198,253.691 181.158,273.181 C169.119,292.671 172.643,316.961 179.735,331.352 C186.827,345.743 205.71,370.894 228.554,365.289 C249.069,360.257 262.583,343.528 262.583,343.528 L268.536,352.21 C268.536,352.21 273.099,352.835 283.884,347.176 C294.669,341.516 296.946,336.425 296.946,336.425 C296.946,336.425 284.699,317.046 273.389,286.114 C262.08,255.182 264.671,232.266 264.671,232.266 C264.671,232.266 250.831,231.615 243.645,232.266 C235.828,232.973 222.745,237.072 222.745,237.072 z" fill-opacity="0" stroke="#000000" stroke-width="10"/>
  </g>
  <g id="c">
    <g>
      <path d="M334.865,217.939 C291.852,222.725 263.59,272.38 296.569,313.309 C350.867,363.998 390.109,306.362 390.109,306.362 C390.109,306.362 384.902,303.588 378.976,300.079 C374.298,297.31 368.022,291.274 368.022,291.274 C348.18,322.464 323.303,306.615 319.046,286.145 C313.198,247.434 357.855,271.441 357.855,271.441 C357.855,271.441 362.818,250.582 376.797,244.029 C376.797,244.029 368.399,215.634 334.865,217.939 z" fill="#FFFFFF"/>
      <path d="M334.865,217.939 C291.852,222.725 263.59,272.38 296.569,313.309 C350.867,363.998 390.109,306.362 390.109,306.362 C390.109,306.362 384.902,303.588 378.976,300.079 C374.298,297.31 368.022,291.274 368.022,291.274 C348.18,322.464 323.303,306.615 319.046,286.145 C313.198,247.434 357.855,271.441 357.855,271.441 C357.855,271.441 362.818,250.582 376.797,244.029 C376.797,244.029 368.399,215.634 334.865,217.939 z" fill-opacity="0" stroke="#B4DC01" stroke-width="10" stroke-miterlimit="2"/>
    </g>
    <path d="M329.298,210.46 C286.284,215.247 258.023,264.901 291.002,305.831 C345.299,356.519 384.542,298.883 384.542,298.883 C384.542,298.883 379.335,296.109 373.409,292.601 C368.731,289.832 362.455,283.796 362.455,283.796 C342.613,314.985 317.736,299.136 313.478,278.666 C307.631,239.955 352.288,263.963 352.288,263.963 C352.288,263.963 357.251,243.103 371.23,236.55 C371.23,236.55 362.832,208.155 329.298,210.46 z" fill="#FFFFFF"/>
    <path d="M327.578,211.317 C342.544,211.116 360.049,216.386 366.565,231.303 C352.586,237.855 345.919,258.715 345.919,258.715 C345.919,258.715 305.196,231.477 307.11,273.418 C311.367,293.888 340.22,313.713 360.062,282.523 C360.062,282.524 362.363,284.584 367.04,287.353 C372.967,290.861 376.47,298.179 376.47,298.179 C376.47,298.179 338.931,351.271 284.633,300.583 C261.195,269.412 281.493,216.249 324.507,211.463 L327.578,211.317 z M327.419,216.322 L324.974,216.445 C306.138,218.577 291.947,231.31 284.256,248.076 C277.498,264.547 278.101,282.416 288.402,297.25 C300.458,308.62 315.247,317.324 332.163,317.496 C342.837,317.286 352.611,313.179 361.3,306.4 C364.465,303.931 367.252,301.28 369.626,298.638 L370.405,297.745 C369.435,296.275 370.061,297.174 368.441,295.11 C367.17,293.632 365.834,292.449 364.493,291.655 C362.301,290.322 363.42,291.03 361.143,289.526 C351.917,301.193 340.709,306.536 326.075,302.057 C314.383,297.922 304.741,286.583 302.215,274.436 L302.133,274.045 L302.115,273.646 C301.116,251.751 311.352,242.634 327.373,245.535 C331.522,246.286 335.831,247.798 340.177,249.843 C343.356,251.431 342.301,250.845 343.415,251.465 C344.911,247.899 346.873,244.563 348.913,241.289 C351.845,236.779 355.404,232.692 359.827,229.607 C358.713,227.85 357.182,226.452 355.695,225.034 C347.534,217.81 337.931,216.404 327.419,216.322 z" fill="#D9D9D9"/>
    <path d="M332.369,210.332 C350,210.501 365.467,219.397 371.23,236.551 C357.251,243.103 352.288,263.963 352.288,263.963 C352.288,263.963 307.631,239.955 313.478,278.666 C317.736,299.136 342.613,314.985 362.455,283.796 C362.455,283.796 368.731,289.832 373.409,292.601 C379.335,296.109 384.542,298.883 384.542,298.883 C384.542,298.883 345.299,356.519 291.002,305.831 C258.023,264.901 286.284,215.247 329.298,210.46 L332.369,210.332 z M332.153,217.335 L329.941,217.436 C311.461,219.576 296.242,231.059 288.015,247.512 C279.595,266.712 283.827,284.783 296.173,301.069 C307.69,311.955 321.935,320.035 338.121,319.625 C348.48,319.047 358.161,314.574 366.91,307.379 C370.929,303.917 368.593,306.023 373.788,300.918 L369.843,298.624 C368.711,297.954 367.518,297.145 366.256,296.209 C365.465,295.622 364.652,294.988 363.821,294.314 L363.533,294.073 C355.069,304.775 343.824,310.529 330.21,307.337 C318.523,304.017 309.309,292.995 306.625,280.092 L306.586,279.903 L306.557,279.712 C303.099,256.819 315.111,247.103 333.751,250.157 C337.889,250.835 342.189,252.086 346.534,253.743 L348.114,254.382 C349.186,251.304 350.781,248.541 352.346,245.722 C355.052,241.333 358.156,236.954 362.41,233.929 C361.358,231.746 359.801,229.903 358.288,228.048 C350.963,219.783 342.839,217.628 332.153,217.335 z" fill="#FFFFFF"/>
    <path d="M329.798,210.96 C286.784,215.747 258.523,265.401 291.502,306.331 C345.799,357.019 385.042,299.383 385.042,299.383 C385.042,299.383 379.835,296.609 373.909,293.101 C369.231,290.332 362.955,284.296 362.955,284.296 C343.113,315.485 318.236,299.636 313.978,279.166 C308.131,240.455 352.788,264.463 352.788,264.463 C352.788,264.463 357.751,243.603 371.73,237.051 C371.73,237.051 363.332,208.655 329.798,210.96 z" fill-opacity="0" stroke="#000000" stroke-width="10" stroke-miterlimit="2"/>
  </g>
  <g id="k">
    <g>
      <path d="M351.746,146.102 C351.746,146.102 370.457,187.399 378.039,220.712 C385.622,254.025 387.892,315.744 387.892,315.744 C387.892,315.744 394.443,317.382 404.454,316.11 C414.464,314.838 421.881,310.828 421.881,310.828 L417.215,258.852 C417.215,258.852 435.015,268.924 441.838,276.192 C448.661,283.461 463.447,302.801 463.447,302.801 C463.447,302.801 468.873,301.005 475.372,290.641 C481.872,280.276 483.63,269.221 483.63,269.221 C448.421,240.98 429.73,224.155 429.73,224.155 C449.183,193.082 455.571,172.524 455.571,172.524 C455.571,172.524 453.283,168.075 446.023,160.407 C438.763,152.74 432.22,151.272 432.22,151.272 C432.22,151.272 432.103,151.587 426.328,164.405 C421.294,175.58 407.555,197.621 407.555,197.621 L390.911,135.239 C390.911,135.239 377.531,131.514 369.076,134.43 C360.621,137.345 351.746,146.102 351.746,146.102 z" fill="#FFFFFF"/>
      <path d="M351.746,146.102 C351.746,146.102 370.457,187.399 378.039,220.712 C385.622,254.025 387.892,315.744 387.892,315.744 C387.892,315.744 394.443,317.382 404.454,316.11 C414.464,314.838 421.881,310.828 421.881,310.828 L417.215,258.852 C417.215,258.852 435.015,268.924 441.838,276.192 C448.661,283.461 463.447,302.801 463.447,302.801 C463.447,302.801 468.873,301.005 475.372,290.641 C481.872,280.276 483.63,269.221 483.63,269.221 C448.421,240.98 429.73,224.155 429.73,224.155 C449.183,193.082 455.571,172.524 455.571,172.524 C455.571,172.524 453.283,168.075 446.023,160.407 C438.763,152.74 432.22,151.272 432.22,151.272 C432.22,151.272 432.103,151.587 426.328,164.405 C421.294,175.58 407.555,197.621 407.555,197.621 L390.911,135.239 C390.911,135.239 377.531,131.514 369.076,134.43 C360.621,137.345 351.746,146.102 351.746,146.102 z" fill-opacity="0" stroke="#B4DC01" stroke-width="14"/>
    </g>
    <g>
      <path d="M347.148,139.604 C347.148,139.604 365.859,180.901 373.441,214.214 C381.023,247.527 383.294,309.247 383.294,309.247 C383.294,309.247 389.844,310.885 399.855,309.612 C409.866,308.34 417.283,304.33 417.283,304.33 L412.617,252.354 C412.617,252.354 430.416,262.426 437.239,269.695 C444.063,276.963 458.848,296.303 458.848,296.303 C458.848,296.303 464.274,294.507 470.774,284.143 C477.274,273.779 479.031,262.723 479.031,262.723 C443.823,234.482 425.131,217.657 425.131,217.657 C444.584,186.584 450.972,166.026 450.972,166.026 C450.972,166.026 448.684,161.577 441.424,153.91 C434.164,146.242 427.621,144.774 427.621,144.774 C427.621,144.774 427.504,145.089 421.73,157.908 C416.696,169.082 402.956,191.123 402.956,191.123 L386.313,128.742 C386.313,128.742 372.932,125.016 364.477,127.932 C356.022,130.847 347.148,139.604 347.148,139.604 z" fill="#FFFFFF"/>
      <path d="M347.148,139.604 C347.148,139.604 365.859,180.901 373.441,214.214 C381.023,247.527 383.294,309.247 383.294,309.247 C383.294,309.247 389.844,310.885 399.855,309.612 C409.866,308.34 417.283,304.33 417.283,304.33 L412.617,252.354 C412.617,252.354 430.416,262.426 437.239,269.695 C444.063,276.963 458.848,296.303 458.848,296.303 C458.848,296.303 464.274,294.507 470.774,284.143 C477.274,273.779 479.031,262.723 479.031,262.723 C443.823,234.482 425.131,217.657 425.131,217.657 C444.584,186.584 450.972,166.026 450.972,166.026 C450.972,166.026 448.684,161.577 441.424,153.91 C434.164,146.242 427.621,144.774 427.621,144.774 C427.621,144.774 427.504,145.089 421.73,157.908 C416.696,169.082 402.956,191.123 402.956,191.123 L386.313,128.742 C386.313,128.742 372.932,125.016 364.477,127.932 C356.022,130.847 347.148,139.604 347.148,139.604 z" fill-opacity="0" stroke="#000000" stroke-width="10"/>
    </g>
    <path d="M378.813,124.739 L395.456,187.121 C395.456,187.121 411.668,169.948 416.702,158.774 C422.476,145.955 426.157,143.605 426.157,143.605 C426.157,143.605 426.664,142.24 433.924,149.907 C441.184,157.575 443.472,162.024 443.472,162.024 C443.472,162.024 437.084,182.582 417.631,213.655 C417.631,213.655 436.323,230.48 471.531,258.721 C471.531,258.721 469.774,269.776 463.274,280.141 C456.774,290.505 451.348,292.301 451.348,292.301 C451.348,292.301 436.563,272.961 429.739,265.692 C422.916,258.424 405.117,248.352 405.116,248.352 L409.783,300.328 C409.783,300.328 402.366,304.338 392.355,305.61 C382.344,306.882 381.542,306.006 381.542,306.006 C381.542,306.006 377.345,244.428 369.763,211.115 C362.181,177.803 343.648,138.104 343.648,138.104 C343.648,138.104 350.502,130.96 358.957,128.044 C367.412,125.129 378.813,124.739 378.813,124.739 z M375.045,130.013 L374.787,130.035 C371.595,130.339 368.409,130.798 365.475,131.436 C363.676,131.826 362.034,132.272 360.587,132.771 C358.202,133.593 355.734,134.909 353.289,136.588 C350.52,138.625 351.699,137.684 349.706,139.351 C350.769,141.713 351.796,144.09 352.821,146.469 C356.286,154.56 359.75,163.185 362.986,171.99 C365.986,180.153 368.64,188.074 370.856,195.612 C372.332,200.636 373.6,205.444 374.638,210.006 C376.878,219.848 378.946,232.572 380.849,247.52 C382.469,260.248 383.88,273.869 385.077,287.489 C385.496,292.254 385.858,296.679 386.162,300.652 L386.204,301.209 C390.276,300.844 388.437,301.042 391.724,300.65 C395.028,300.23 398.266,299.452 401.348,298.419 C404.003,297.458 402.968,297.877 404.486,297.242 L400.137,248.799 L399.284,239.307 L407.579,244 C407.641,244.035 407.752,244.099 407.911,244.19 C408.17,244.338 408.469,244.511 408.805,244.707 C409.759,245.263 410.82,245.893 411.962,246.584 C415.228,248.561 418.496,250.642 421.561,252.739 C423.555,254.104 425.401,255.433 427.069,256.717 C429.648,258.702 431.769,260.549 433.385,262.27 C435.67,264.704 438.853,268.466 442.742,273.269 C443.07,273.674 443.402,274.085 443.738,274.503 C446.338,277.734 449.065,281.191 451.754,284.648 L452.479,285.582 C455.117,283.282 457.145,280.4 459.038,277.484 C459.379,276.941 459.71,276.387 460.033,275.823 C462.275,271.903 464,267.663 465.259,263.419 C465.907,261.083 465.681,262 465.995,260.683 C453.221,250.443 440.614,239.998 428.134,229.402 C424.147,226.003 420.701,223.023 417.806,220.485 C416.79,219.594 415.915,218.822 415.182,218.171 C414.924,217.942 414.702,217.744 414.517,217.578 C414.329,217.409 414.329,217.409 414.286,217.371 L411.165,214.561 L413.393,211.002 C421.778,197.608 428.338,185.22 433.281,174.149 C435.001,170.296 436.394,166.89 437.487,163.969 L437.973,162.645 L437.352,161.747 C435.638,159.348 433.313,156.534 430.293,153.345 C429.25,152.237 428.18,151.155 427.069,150.115 C424.732,153.452 422.962,157.139 421.26,160.828 C419.889,163.871 417.802,167.319 415.104,171.14 C413.779,173.018 412.319,174.965 410.747,176.966 C408.196,180.212 405.473,183.445 402.751,186.522 C401.798,187.599 400.913,188.581 400.116,189.448 C399.836,189.754 399.586,190.024 399.37,190.256 C399.238,190.398 399.144,190.498 399.092,190.553 L392.937,197.074 L390.625,188.41 L375.045,130.013 z" fill="#D9D9D9"/>
    <path d="M372.788,126.328 C377.176,126.499 381.568,127.096 385.813,128.242 L402.456,190.623 C402.456,190.623 416.196,168.582 421.229,157.408 C427.004,144.589 427.121,144.274 427.121,144.274 C427.121,144.274 433.664,145.742 440.924,153.41 C448.184,161.077 450.472,165.526 450.472,165.526 C450.472,165.526 444.084,186.084 424.631,217.157 C424.631,217.157 443.323,233.982 478.531,262.223 C478.531,262.223 476.774,273.279 470.274,283.643 C463.774,294.007 458.348,295.803 458.348,295.803 C458.348,295.803 443.563,276.463 436.739,269.194 C429.916,261.926 412.117,251.854 412.116,251.854 L416.783,303.83 C416.783,303.83 409.366,307.84 399.355,309.112 C389.344,310.385 382.794,308.747 382.793,308.746 C382.794,308.747 380.523,247.027 372.941,213.714 C365.359,180.401 346.648,139.104 346.648,139.104 C346.648,139.104 355.522,130.347 363.977,127.432 C366.812,126.398 369.822,126.406 372.788,126.328 z M371.581,133.318 C369.404,133.339 367.584,133.593 366.259,134.049 C365.996,134.14 365.725,134.242 365.446,134.354 C363.308,135.215 360.865,136.646 358.309,138.485 C355.553,140.579 356.595,139.723 355.114,140.966 C357.109,145.634 356.249,143.6 357.704,147.064 C361.194,155.412 364.683,164.277 367.944,173.284 C370.668,180.811 373.113,188.116 375.21,195.088 C377.02,201.11 378.55,206.817 379.766,212.161 C382.039,222.146 383.962,235.008 385.582,250.111 C386.954,262.895 388.036,276.567 388.86,290.235 C389.109,294.327 389.327,298.422 389.526,302.517 C392.519,302.741 395.501,302.499 398.472,302.168 C401.638,301.766 404.749,301.018 407.713,300.025 L409.359,299.429 L405.145,252.48 L403.952,239.192 L415.564,245.762 C415.802,245.897 416.226,246.14 416.811,246.481 C417.775,247.043 418.846,247.678 419.998,248.375 C423.294,250.37 426.592,252.471 429.69,254.591 C431.714,255.975 433.589,257.326 435.289,258.634 C437.946,260.679 440.143,262.592 441.843,264.404 C444.17,266.882 447.379,270.674 451.296,275.512 C451.625,275.919 451.959,276.332 452.296,276.751 C457.426,283.188 454.967,280.074 459.679,286.088 C461.49,284.241 462.941,282.085 464.344,279.924 C464.67,279.404 464.987,278.873 465.297,278.333 C467.456,274.558 469.124,270.458 470.342,266.353 L470.735,264.934 C458.288,254.945 446.003,244.755 433.836,234.426 C429.842,231.021 426.389,228.035 423.487,225.491 C422.468,224.598 421.59,223.822 420.854,223.168 C420.594,222.938 420.371,222.738 420.183,222.571 C419.993,222.4 419.993,222.4 419.948,222.36 L415.578,218.426 L418.698,213.443 C427.033,200.13 433.549,187.823 438.454,176.836 C440.158,173.021 441.535,169.653 442.614,166.771 L442.738,166.432 L442.725,166.412 C441.064,164.088 438.798,161.345 435.841,158.222 C432.873,155.314 434.598,156.851 430.559,153.736 C429.578,155.919 428.595,158.101 427.612,160.283 C425.981,163.904 423.486,168.644 420.298,174.289 C419.82,175.137 419.328,176 418.824,176.878 C416.541,180.856 414.101,184.973 411.661,189 C410.807,190.409 410.014,191.706 409.302,192.863 C409.052,193.269 408.83,193.628 408.638,193.938 C408.521,194.126 408.442,194.254 408.397,194.326 L399.855,208.029 L395.693,192.428 L380.145,134.153 C377.323,133.589 374.453,133.38 371.581,133.318 z" fill="#FFFFFF"/>
    <path d="M347.148,139.604 C347.148,139.604 365.859,180.901 373.441,214.214 C381.023,247.527 383.294,309.247 383.294,309.247 C383.294,309.247 389.844,310.885 399.855,309.612 C409.866,308.34 417.283,304.33 417.283,304.33 L412.617,252.354 C412.617,252.354 430.416,262.426 437.239,269.695 C444.063,276.963 458.848,296.303 458.848,296.303 C458.848,296.303 464.274,294.507 470.774,284.143 C477.274,273.779 479.031,262.723 479.031,262.723 C443.823,234.482 425.131,217.657 425.131,217.657 C444.584,186.584 450.972,166.026 450.972,166.026 C450.972,166.026 448.684,161.577 441.424,153.91 C434.164,146.242 427.621,144.774 427.621,144.774 C427.621,144.774 427.504,145.089 421.73,157.908 C416.696,169.082 402.956,191.123 402.956,191.123 L386.313,128.742 C386.313,128.742 372.932,125.016 364.477,127.932 C356.022,130.847 347.148,139.604 347.148,139.604 z" fill-opacity="0" stroke="#000000" stroke-width="10"/>
  </g>
  <g id="e">
    <g>
      <path d="M503.448,251.041 C503.448,251.041 523.309,247.76 531.481,245.326 C539.653,242.891 558.8,235.75 558.8,235.75 C548.46,162.301 478.213,185.906 477.845,234.104 C477.267,309.876 556.325,302.417 569.484,259.07 C569.738,258.235 566.949,255.858 558.393,251.517 C549.765,247.14 548.834,246.948 548.834,246.948 C533.493,271.602 526.913,272.594 515.084,268.202 C504.622,264.317 503.448,251.041 503.448,251.041 z" fill="#FFFFFF"/>
      <path d="M503.448,251.041 C503.448,251.041 523.309,247.76 531.481,245.326 C539.653,242.891 558.8,235.75 558.8,235.75 C548.46,162.301 478.213,185.906 477.845,234.104 C477.267,309.876 556.325,302.417 569.484,259.07 C569.738,258.235 566.949,255.858 558.393,251.517 C549.765,247.14 548.834,246.948 548.834,246.948 C533.493,271.602 526.913,272.594 515.084,268.202 C504.622,264.317 503.448,251.041 503.448,251.041 z" fill-opacity="0" stroke="#B4DC01" stroke-width="14"/>
    </g>
    <g>
      <path d="M497.825,247.53 C497.825,247.53 517.685,244.25 525.857,241.815 C534.029,239.381 553.177,232.24 553.177,232.24 C542.837,158.79 472.59,182.396 472.222,230.594 C471.643,306.365 550.702,298.907 563.861,255.56 C564.115,254.725 561.325,252.348 552.769,248.007 C544.142,243.629 543.211,243.438 543.211,243.438 C527.87,268.092 521.29,269.084 509.46,264.692 C498.998,260.807 497.825,247.53 497.825,247.53 z" fill="#FFFFFF"/>
      <path d="M497.825,247.53 C497.825,247.53 517.685,244.25 525.857,241.815 C534.029,239.381 553.177,232.24 553.177,232.24 C542.837,158.79 472.59,182.396 472.222,230.594 C471.643,306.365 550.702,298.907 563.861,255.56 C564.115,254.725 561.325,252.348 552.769,248.007 C544.142,243.629 543.211,243.438 543.211,243.438 C527.87,268.092 521.29,269.084 509.46,264.692 C498.998,260.807 497.825,247.53 497.825,247.53 z" fill-opacity="0" stroke="#000000" stroke-width="10"/>
    </g>
    <path d="M489.713,227.685 L522.704,219.342 C522.704,219.342 520.428,202.565 502.758,204.635 C485.088,206.705 489.713,227.685 489.713,227.685 z" fill="#D9D9D9"/>
    <g>
      <path d="M492.31,230.502 L527.393,221.077 C527.393,221.077 523.994,206.618 507.295,208.574 C490.595,210.531 492.31,230.502 492.31,230.502 z" fill="#000000"/>
      <path d="M511.556,206.418 C517.543,206.753 521.74,209.061 525.709,213.494 C526.926,215.033 527.86,216.675 528.551,218.32 C528.972,219.321 529.223,220.12 529.34,220.619 L529.784,222.505 L527.912,223.008 L492.829,232.434 L490.522,233.054 L490.318,230.673 C490.309,230.576 490.298,230.411 490.288,230.184 C490.129,226.787 490.518,222.731 491.931,218.787 C494.356,212.014 499.266,207.501 507.062,206.588 C509.589,206.357 508.093,206.451 511.556,206.418 z M511.649,208.431 C508.311,208.439 509.76,208.354 507.295,208.574 C490.595,210.531 492.31,230.502 492.31,230.502 L527.393,221.077 C525.24,213.256 519.371,209.376 511.649,208.431 z" fill="#FFFFFF"/>
    </g>
    <path d="M510.23,184.329 C534.443,186.348 546.578,203.479 550.3,226.25 C550.3,226.25 531.153,233.391 522.981,235.826 C514.809,238.26 496.133,242.183 496.133,242.182 C496.133,242.183 496.122,254.817 506.584,258.702 C518.413,263.094 524.993,262.102 540.334,237.448 C540.334,237.448 541.265,237.64 549.893,242.017 C558.449,246.358 561.238,248.735 560.984,249.57 C547.825,292.917 468.767,300.376 469.345,224.604 C469.443,207.48 479.729,192.105 496.129,186.493 C502.197,184.416 503.903,184.731 510.23,184.329 z M510.482,189.33 L506.96,189.386 C488.787,190.544 474.496,204.776 474.345,224.642 C474.101,256.541 488.725,274.547 510.523,276.782 C529.293,278.406 547.925,268.33 555.242,250.768 C552.81,249.158 550.221,247.807 547.63,246.476 C545.835,245.559 544.027,244.667 542.216,243.781 C536.258,252.394 529.492,264.009 518.04,265.523 C513.458,266.129 509.114,264.832 504.843,263.389 C499.712,261.484 496.073,257.87 493.791,253.198 C492.616,250.793 491.876,248.268 491.467,245.751 C491.219,244.223 491.133,242.991 491.133,242.18 L491.133,242.178 L491.137,238.123 L495.106,237.289 C495.162,237.278 495.162,237.278 495.442,237.218 C495.719,237.16 496.041,237.091 496.404,237.014 C497.443,236.792 498.601,236.542 499.849,236.27 C503.411,235.492 506.973,234.692 510.292,233.913 C511.329,233.669 512.329,233.431 513.285,233.2 C516.744,232.362 519.56,231.627 521.553,231.034 C524.16,230.257 528.167,228.91 533.164,227.148 C533.557,227.009 533.954,226.869 534.356,226.726 C537.539,225.598 540.885,224.388 544.186,223.177 L544.627,223.015 C541.774,208.565 532.693,193.498 517.242,190.228 C515.018,189.757 512.735,189.629 510.482,189.33 z" fill="#D9D9D9"/>
    <path d="M512.014,184.965 C518.537,185.381 518.626,184.93 524.342,186.793 C542.922,192.847 549.976,214.49 552.677,231.74 C552.677,231.74 533.529,238.881 525.357,241.315 C517.185,243.75 497.325,247.03 497.325,247.03 C497.325,247.03 498.498,260.307 508.96,264.192 C520.79,268.584 527.37,267.592 542.711,242.938 C542.711,242.938 543.642,243.129 552.269,247.507 C560.825,251.848 563.615,254.225 563.361,255.06 C550.202,298.407 471.143,305.865 471.722,230.094 C472.004,210.196 484.993,190.882 504.935,185.99 C507.25,185.421 509.654,185.306 512.014,184.965 z M514.315,191.928 C510.553,192.052 512.166,191.909 509.466,192.226 C492.798,194.647 478.87,210.714 478.721,230.147 C478.486,261.054 492.376,278.157 513.104,280.283 C529.821,281.588 548.376,273.217 555.125,257.048 C553.174,255.848 551.138,254.795 549.102,253.749 C547.834,253.109 546.569,252.464 545.293,251.84 C539.287,260.546 532.1,271.527 520.654,273.016 C515.746,273.655 511.102,272.296 506.524,270.754 C500.888,268.661 496.769,264.636 493.99,259.44 C492.615,256.869 491.656,254.177 491.019,251.492 C490.796,250.552 490.628,249.672 490.505,248.866 C490.426,248.343 490.377,247.931 490.352,247.647 L489.78,241.182 L496.184,240.124 C496.238,240.115 496.238,240.115 496.522,240.068 C496.805,240.02 497.133,239.965 497.504,239.902 C498.566,239.721 499.75,239.516 501.026,239.291 C504.668,238.647 508.309,237.971 511.696,237.295 C513.85,236.865 515.831,236.449 517.598,236.053 C519.995,235.516 521.95,235.027 523.359,234.607 C525.925,233.842 529.908,232.503 534.876,230.751 C535.268,230.613 535.664,230.473 536.065,230.331 C542.21,228.131 539.308,229.18 544.774,227.19 C541.428,210.134 533.444,193.564 514.315,191.928 z" fill="#FFFFFF"/>
    <path d="M497.825,247.53 C497.825,247.53 517.685,244.25 525.857,241.815 C534.029,239.381 553.177,232.24 553.177,232.24 C542.837,158.79 472.59,182.396 472.222,230.594 C471.643,306.365 550.702,298.907 563.861,255.56 C564.115,254.725 561.325,252.348 552.769,248.007 C544.142,243.629 543.211,243.438 543.211,243.438 C527.87,268.092 521.29,269.084 509.46,264.692 C498.998,260.807 497.825,247.53 497.825,247.53 z" fill-opacity="0" stroke="#000000" stroke-width="10"/>
  </g>
  <g id="t">
    <g>
      <path d="M541.563,139.82 C541.563,139.82 535.787,153.925 537.675,167.928 C539.504,181.487 544.069,183.219 544.069,183.219 L565.618,183.529 C565.618,183.529 564.923,222.046 565.696,239.201 C566.281,252.184 571.827,285.311 571.827,285.311 C571.827,285.311 583.156,287.254 590.1,286.738 C597.043,286.223 607.207,283.321 607.207,283.321 C607.207,283.321 602.204,251.182 601.973,233.542 C601.741,215.902 602.74,183.126 602.74,183.126 L622.188,183.424 C622.188,183.424 628.637,170.599 629.362,161.3 C630.46,147.237 628.607,139.152 628.607,139.152 L604.151,140.055 L607.738,125.344 C607.738,125.344 600.411,122.008 588.45,121.697 C576.488,121.387 566.557,123.28 566.557,123.28 L565.24,139.839 L541.563,139.82 z" fill="#FFFFFF"/>
      <path d="M541.563,139.82 C541.563,139.82 535.787,153.925 537.675,167.928 C539.504,181.487 544.069,183.219 544.069,183.219 L565.618,183.529 C565.618,183.529 564.923,222.046 565.696,239.201 C566.281,252.184 571.827,285.311 571.827,285.311 C571.827,285.311 583.156,287.254 590.1,286.738 C597.043,286.223 607.207,283.321 607.207,283.321 C607.207,283.321 602.204,251.182 601.973,233.542 C601.741,215.902 602.74,183.126 602.74,183.126 L622.188,183.424 C622.188,183.424 628.637,170.599 629.362,161.3 C630.46,147.237 628.607,139.152 628.607,139.152 L604.151,140.055 L607.738,125.344 C607.738,125.344 600.411,122.008 588.45,121.697 C576.488,121.387 566.557,123.28 566.557,123.28 L565.24,139.839 L541.563,139.82 z" fill-opacity="0" stroke="#B4DC3B" stroke-width="14"/>
    </g>
    <path d="M536.063,134.639 C536.063,134.639 530.287,148.744 532.175,162.746 C534.004,176.306 538.569,178.037 538.569,178.037 L560.118,178.348 C560.118,178.348 559.423,216.865 560.196,234.019 C560.781,247.002 566.327,280.13 566.327,280.13 C566.327,280.13 577.656,282.073 584.6,281.557 C591.543,281.042 601.707,278.14 601.707,278.14 C601.707,278.14 596.704,246.001 596.473,228.361 C596.241,210.721 597.24,177.945 597.24,177.945 L616.688,178.243 C616.688,178.243 623.137,165.417 623.862,156.119 C624.96,142.056 623.107,133.971 623.107,133.971 L598.651,134.873 L602.238,120.163 C602.238,120.163 594.911,116.827 582.95,116.516 C570.988,116.206 561.057,118.099 561.057,118.099 L559.74,134.658 L536.063,134.639 z" fill="#FFFFFF"/>
    <path d="M576.393,114.112 L578.561,114.137 C590.522,114.448 596.238,114.163 596.238,114.163 L593.337,132.815 L617.048,132.815 C617.048,132.815 618.96,136.056 617.862,150.119 C617.137,159.417 613.612,171.868 613.612,171.868 L591.24,171.945 C591.24,171.945 590.241,204.721 590.473,222.361 C590.704,240.001 595.707,272.14 595.707,272.14 C595.707,272.14 585.543,275.042 578.6,275.557 C571.656,276.073 563.377,273.103 563.377,273.103 C563.377,273.103 557.841,240.958 557.256,227.975 C556.483,210.82 554.118,172.348 554.118,172.348 L532.569,172.037 C532.569,172.037 531.594,170.995 529.765,157.435 C527.876,143.433 535.263,132.815 535.263,132.815 L558.63,132.815 L561,116.482 C565.851,114.495 571.228,114.279 576.393,114.112 z M576.577,119.111 C573.001,119.077 569.445,119.438 565.948,120.17 L565.501,120.284 L563.578,133.533 L562.957,137.815 L538.159,137.815 C537.515,139.048 537.932,138.219 536.986,140.341 C534.901,145.431 533.944,151.008 534.72,156.767 C535.176,160.224 535.704,163.67 536.378,167.092 L554.19,167.348 L558.824,167.415 L559.109,172.041 C559.115,172.149 559.115,172.149 559.147,172.661 C559.178,173.167 559.214,173.756 559.254,174.421 C559.37,176.32 559.498,178.449 559.637,180.758 C560.033,187.356 560.429,194.076 560.799,200.521 C560.865,201.672 560.93,202.807 560.993,203.922 C561.565,213.989 561.999,222.154 562.251,227.749 C562.44,231.945 563.199,238.678 564.388,247.173 C564.654,249.067 564.937,251.027 565.237,253.042 C565.908,257.552 566.627,262.124 567.347,266.521 C567.737,268.89 567.587,267.991 567.792,269.218 L568.886,269.503 C571.322,270.1 573.72,270.493 575.884,270.593 C576.722,270.631 577.507,270.624 578.229,270.571 C579.615,270.468 581.266,270.246 583.118,269.92 C584.551,269.668 586.072,269.36 587.646,269.008 C588.459,268.818 589.273,268.628 590.086,268.438 C590.091,268.437 590.095,268.436 590.1,268.435 L589.938,267.316 C589.32,263.001 588.701,258.413 588.123,253.748 C587.626,249.73 587.182,245.834 586.804,242.122 C586.011,234.326 585.542,227.658 585.473,222.426 C585.405,217.24 585.437,210.492 585.552,202.549 C585.622,197.698 585.72,192.55 585.84,187.26 C585.928,183.381 586.022,179.65 586.116,176.204 C586.149,174.998 586.18,173.913 586.207,172.966 C586.217,172.634 586.223,172.441 586.233,172.096 C586.24,171.846 586.24,171.846 586.242,171.792 L586.389,166.962 L591.222,166.945 L609.746,166.881 C610.457,164.01 610.058,165.667 610.916,161.903 C611.422,159.58 611.856,157.331 612.195,155.217 C612.519,153.21 612.75,151.367 612.878,149.73 C613.151,146.326 613.284,142.909 613.147,139.495 C613.125,138.933 613.047,138.375 612.997,137.815 L587.5,137.815 L588.397,132.046 L590.383,119.275 C586.399,119.311 582.414,119.229 578.432,119.135 L576.577,119.111 z" fill="#D9D9D9"/>
    <path d="M578.575,116.495 L582.95,116.516 C594.911,116.827 602.238,120.163 602.238,120.163 L598.651,134.873 L623.107,133.971 C623.107,133.971 624.96,142.056 623.862,156.119 C623.137,165.417 616.688,178.243 616.688,178.243 L597.24,177.945 C597.24,177.945 596.241,210.721 596.473,228.361 C596.704,246.001 601.707,278.14 601.707,278.14 C601.707,278.14 591.543,281.042 584.6,281.557 C577.656,282.073 566.327,280.13 566.327,280.13 C566.327,280.13 560.781,247.002 560.196,234.019 C559.423,216.865 560.118,178.348 560.118,178.348 L538.569,178.037 C538.569,178.037 534.004,176.306 532.175,162.746 C530.287,148.744 536.063,134.639 536.063,134.639 L559.74,134.658 L561.057,118.099 C566.836,117.012 572.714,116.74 578.575,116.495 z M578.866,123.49 C569.977,123.928 573.73,123.613 567.591,124.229 L566.718,135.213 L566.205,141.663 L559.734,141.658 L541.11,141.643 L540.702,143.096 C539.054,149.404 538.349,155.808 539.08,161.562 C539.091,161.645 539.101,161.728 539.112,161.811 C539.644,165.751 540.432,168.627 541.343,170.577 L541.599,171.08 L560.219,171.348 L567.244,171.449 L567.117,178.474 C567.115,178.595 567.111,178.833 567.105,179.18 C567.095,179.76 567.084,180.433 567.072,181.191 C567.039,183.359 567.005,185.775 566.974,188.378 C566.884,195.827 566.831,203.275 566.831,210.221 C566.831,220.188 566.943,228.261 567.189,233.704 C567.376,237.874 568.147,244.782 569.354,253.554 C569.608,255.4 569.879,257.308 570.164,259.268 C570.835,263.882 571.554,268.57 572.274,273.085 L572.41,273.934 L572.457,273.94 C574.573,274.201 576.635,274.404 578.543,274.524 C580.75,274.663 582.643,274.683 584.081,274.576 C585.392,274.479 586.981,274.265 588.772,273.95 C590.172,273.704 591.664,273.402 593.21,273.056 L593.862,272.904 C592.713,264.62 593.29,268.923 592.138,259.993 C591.639,255.962 591.194,252.051 590.814,248.324 C590.016,240.475 589.543,233.754 589.473,228.453 C589.405,223.244 589.437,216.48 589.552,208.52 C589.622,203.664 589.721,198.51 589.841,193.215 C589.929,189.332 590.023,185.599 590.117,182.149 C590.15,180.942 590.181,179.856 590.208,178.908 C590.218,178.576 590.224,178.382 590.234,178.036 C590.241,177.785 590.241,177.785 590.243,177.732 L590.453,170.84 L597.347,170.946 L612.221,171.173 C613.034,169.306 612.5,170.559 613.764,167.39 C614.655,165.044 615.398,162.783 615.944,160.695 C616.452,158.749 616.771,157.017 616.884,155.575 C617.195,151.725 617.281,147.859 617.151,143.999 C617.119,143.065 617.031,142.134 616.971,141.202 L598.909,141.868 L589.657,142.21 L591.85,133.215 L593.879,124.896 C590.25,123.95 586.496,123.71 582.768,123.514 L578.866,123.49 z" fill="#FFFFFF"/>
    <path d="M536.563,135.139 C536.563,135.139 530.787,149.244 532.675,163.246 C534.504,176.806 539.069,178.537 539.069,178.537 L560.618,178.848 C560.618,178.848 559.923,217.365 560.696,234.519 C561.281,247.502 566.827,280.63 566.827,280.63 C566.827,280.63 578.156,282.573 585.1,282.057 C592.043,281.542 602.207,278.64 602.207,278.64 C602.207,278.64 597.204,246.501 596.973,228.861 C596.741,211.221 597.74,178.445 597.74,178.445 L617.188,178.743 C617.188,178.743 623.637,165.917 624.362,156.619 C625.46,142.556 623.607,134.471 623.607,134.471 L599.151,135.373 L602.738,120.663 C602.738,120.663 595.411,117.327 583.45,117.016 C571.488,116.706 561.557,118.599 561.557,118.599 L560.24,135.158 L536.563,135.139 z" fill-opacity="0" stroke="#000000" stroke-width="10"/>
  </g>
  <g id="oo">
    <g>
      <path d="M677.435,208.011 C663.7,207.278 611.695,171.976 604.713,242.797 C619.717,305.505 642.371,275.376 672.129,272.885 C696.802,275.376 714.279,306.238 742.114,238.869 C746.846,171.298 685.531,207.278 677.435,208.011 z" fill="#B4DC3B"/>
      <path d="M677.435,208.011 C663.7,207.278 611.695,171.976 604.713,242.797 C619.717,305.505 642.371,275.376 672.129,272.885 C696.802,275.376 714.279,306.238 742.114,238.869 C746.846,171.298 685.531,207.278 677.435,208.011 z" fill-opacity="0" stroke="#B4DC3B" stroke-width="14"/>
    </g>
    <g>
      <path d="M672.435,201.011 C658.7,200.278 606.695,164.976 599.713,235.798 C614.717,298.505 637.371,268.376 667.129,265.885 C691.802,268.376 709.279,299.238 737.114,231.869 C741.846,164.298 680.531,200.278 672.435,201.011 z" fill="#000000"/>
      <path d="M672.435,201.011 C658.7,200.278 606.695,164.976 599.713,235.798 C614.717,298.505 637.371,268.376 667.129,265.885 C691.802,268.376 709.279,299.238 737.114,231.869 C741.846,164.298 680.531,200.278 672.435,201.011 z" fill-opacity="0" stroke="#000000" stroke-width="14"/>
    </g>
    <path d="M619.588,268.226 C603.387,259.705 598.511,237.096 608.698,217.728 C618.885,198.361 640.277,189.568 656.479,198.089 C672.68,206.611 677.555,229.219 667.368,248.587 C657.181,267.955 635.789,276.748 619.588,268.226 z" fill="#FFFFFF"/>
    <path d="M679.32,268.226 C663.118,259.705 658.243,237.096 668.43,217.728 C678.617,198.361 700.009,189.568 716.21,198.089 C732.411,206.611 737.287,229.219 727.1,248.587 C716.913,267.955 695.521,276.748 679.32,268.226 z" fill="#FFFFFF"/>
    <path d="M619.71,266.064 C604.223,257.918 599.562,236.306 609.3,217.791 C619.038,199.277 639.488,190.871 654.975,199.017 C670.462,207.163 675.123,228.776 665.385,247.29 C655.647,265.805 635.197,274.21 619.71,266.064 z" fill="#D9D9D9"/>
    <path d="M680.132,266.064 C664.645,257.918 659.984,236.306 669.723,217.791 C679.461,199.277 699.91,190.871 715.398,199.017 C730.885,207.163 735.545,228.776 725.807,247.29 C716.069,265.805 695.62,274.21 680.132,266.064 z" fill="#D9D9D9"/>
    <path d="M619.355,262.797 C604.408,254.935 599.91,234.076 609.309,216.207 C618.707,198.339 638.443,190.226 653.39,198.088 C668.338,205.95 672.836,226.809 663.437,244.678 C654.039,262.546 634.302,270.659 619.355,262.797 z" fill="#FFFFFF"/>
    <path d="M679.747,263.617 C664.8,255.755 660.302,234.897 669.701,217.028 C679.099,199.159 698.835,191.047 713.782,198.909 C728.73,206.771 733.228,227.63 723.829,245.498 C714.431,263.367 694.694,271.479 679.747,263.617 z" fill="#FFFFFF"/>
    <path d="M636.45,238.317 C628.435,234.101 625.722,223.49 630.389,214.617 C635.056,205.743 645.337,201.967 653.352,206.183 C661.367,210.399 664.081,221.009 659.413,229.883 C654.746,238.757 644.465,242.533 636.45,238.317 z" fill="#000000"/>
    <path d="M686.112,238.317 C678.098,234.101 675.384,223.49 680.051,214.617 C684.718,205.743 694.999,201.967 703.014,206.183 C711.029,210.399 713.743,221.009 709.075,229.883 C704.408,238.757 694.127,242.533 686.112,238.317 z" fill="#000000"/>
  </g>
  <g id="n">
    <g>
      <path d="M755.744,183.192 C755.744,183.192 743.394,211.301 740.878,235.714 C739.608,248.036 737.921,279.399 737.921,279.399 C737.921,279.399 744.962,280.274 753.377,280.274 C761.792,280.274 768.413,278.038 768.413,278.038 C768.413,278.038 766.344,261.44 767.322,250.429 C768.31,239.295 773.791,224.316 773.791,224.316 C773.791,224.316 785.329,218.584 792.592,229.998 C802.305,245.263 778.993,281.953 778.993,281.953 C778.993,281.953 786.43,285.641 793.36,288.801 C800.291,291.961 809.472,291.495 809.472,291.495 C826.282,260.941 834.397,220.406 823.95,205.533 C816.864,195.446 782.094,200.315 782.094,200.315 L787.215,186.957 C787.215,186.957 783.264,183.242 770.888,182.715 C758.513,182.188 755.744,183.192 755.744,183.192 z" fill="#FFFFFF"/>
      <path d="M755.744,183.192 C755.744,183.192 743.394,211.301 740.878,235.714 C739.608,248.036 737.921,279.399 737.921,279.399 C737.921,279.399 744.962,280.274 753.377,280.274 C761.792,280.274 768.413,278.038 768.413,278.038 C768.413,278.038 766.344,261.44 767.322,250.429 C768.31,239.295 773.791,224.316 773.791,224.316 C773.791,224.316 785.329,218.584 792.592,229.998 C802.305,245.263 778.993,281.953 778.993,281.953 C778.993,281.953 786.43,285.641 793.36,288.801 C800.291,291.961 809.472,291.495 809.472,291.495 C826.282,260.941 834.397,220.406 823.95,205.533 C816.864,195.446 782.094,200.315 782.094,200.315 L787.215,186.957 C787.215,186.957 783.264,183.242 770.888,182.715 C758.513,182.188 755.744,183.192 755.744,183.192 z" fill-opacity="0" stroke="#B4DC3B" stroke-width="14"/>
    </g>
    <g>
      <path d="M752.744,179.192 C752.744,179.192 740.394,207.301 737.878,231.714 C736.608,244.036 734.921,275.399 734.921,275.399 C734.921,275.399 741.962,276.274 750.377,276.274 C758.792,276.274 765.413,274.038 765.413,274.038 C765.413,274.038 763.344,257.44 764.322,246.429 C765.31,235.295 770.791,220.316 770.791,220.316 C770.791,220.316 782.329,214.584 789.592,225.998 C799.305,241.263 775.993,277.953 775.993,277.953 C775.993,277.953 783.43,281.641 790.36,284.801 C797.291,287.961 806.472,287.495 806.472,287.495 C823.282,256.941 831.397,216.406 820.95,201.533 C813.864,191.446 779.094,196.315 779.094,196.315 L784.215,182.957 C784.215,182.957 780.264,179.242 767.888,178.715 C755.513,178.188 752.744,179.192 752.744,179.192 z" fill="#FFFFFF"/>
      <path d="M752.744,179.192 C752.744,179.192 740.394,207.301 737.878,231.714 C736.608,244.036 734.921,275.399 734.921,275.399 C734.921,275.399 741.962,276.274 750.377,276.274 C758.792,276.274 765.413,274.038 765.413,274.038 C765.413,274.038 763.344,257.44 764.322,246.429 C765.31,235.295 770.791,220.316 770.791,220.316 C770.791,220.316 782.329,214.584 789.592,225.998 C799.305,241.263 775.993,277.953 775.993,277.953 C775.993,277.953 783.43,281.641 790.36,284.801 C797.291,287.961 806.472,287.495 806.472,287.495 C823.282,256.941 831.397,216.406 820.95,201.533 C813.864,191.446 779.094,196.315 779.094,196.315 L784.215,182.957 C784.215,182.957 780.264,179.242 767.888,178.715 C755.513,178.188 752.744,179.192 752.744,179.192 z" fill-opacity="0" stroke="#000000" stroke-width="10"/>
    </g>
    <path d="M755.278,175.917 C757.945,175.878 760.611,175.986 763.276,176.089 C775.651,176.616 778.188,177.128 778.188,177.128 L773.067,190.486 C773.067,190.486 805.056,195.086 814.922,195.704 C825.37,210.577 817.256,251.112 800.445,281.666 C800.445,281.666 791.264,282.132 784.333,278.972 C777.403,275.812 775.44,274.791 775.44,274.79 C775.44,274.791 801.882,235.477 783.565,220.169 C776.302,208.755 764.764,214.487 764.764,214.487 C764.764,214.487 759.283,229.466 758.295,240.6 C757.317,251.611 759.386,268.209 759.386,268.208 C759.386,268.209 752.766,270.445 744.35,270.445 C735.935,270.445 734.421,271.48 734.421,271.48 C734.421,271.48 737.679,240.296 738.948,227.975 C741.465,203.561 752.434,176.354 752.434,176.354 C752.345,176.283 752.241,176.224 752.602,176.131 C753.33,175.944 754.592,175.944 755.278,175.917 z M756.794,180.909 L756.04,180.913 C755.487,182.385 755.854,181.401 754.955,183.873 C753.346,188.364 751.736,193.26 750.235,198.389 C747.85,206.535 745.973,214.475 744.794,221.889 C744.433,224.158 744.141,226.36 743.922,228.487 C743.488,232.696 742.798,239.351 741.92,247.783 C741.914,247.842 741.914,247.842 741.907,247.902 C741.358,253.182 740.769,258.832 740.18,264.476 L740.064,265.586 C742.494,265.422 741.066,265.492 744.35,265.445 C747.582,265.484 750.784,265.018 753.954,264.441 L753.727,261.956 C753.37,257.771 753.128,253.622 753.055,249.722 C752.988,246.166 753.066,242.956 753.314,240.158 C753.524,237.8 753.919,235.228 754.476,232.469 C755.049,229.632 755.782,226.651 756.638,223.589 C757.385,220.916 758.184,218.327 758.984,215.916 C759.264,215.07 759.525,214.305 759.761,213.633 C759.904,213.224 760.009,212.932 760.068,212.769 L760.753,210.897 L762.539,210.01 C763.141,209.711 764.062,209.335 765.252,208.979 C769.698,207.645 774.482,207.567 779.113,209.665 C782.523,211.217 785.27,213.797 787.366,216.872 C795.732,224.13 795.864,235.525 793.86,245.559 C792.558,251.457 790.256,257.647 787.241,263.93 C784.035,270.237 785.603,267.335 782.593,272.664 C784.992,273.779 783.721,273.192 786.408,274.423 C787.421,274.885 788.575,275.28 789.844,275.605 C791.796,276.106 793.932,276.421 796.116,276.579 C797.282,276.648 796.845,276.635 797.425,276.649 C805.807,260.298 812.144,242.481 814.111,224.123 C814.959,216.208 815.136,207.882 811.888,200.471 C806.172,199.955 800.479,199.22 794.787,198.495 C793.763,198.363 792.718,198.227 791.653,198.087 C787.243,197.507 782.682,196.885 778.228,196.264 C776.669,196.047 775.235,195.845 773.958,195.664 C773.51,195.6 773.115,195.544 772.774,195.495 C772.429,195.446 772.429,195.446 772.356,195.435 L766.157,194.544 L768.399,188.696 L771.155,181.505 C768.46,181.327 765.762,181.204 763.063,181.085 C759.354,180.943 761.444,181.009 756.794,180.909 z" fill="#D9D9D9"/>
    <path d="M761.395,178.063 C765.916,178.147 763.918,178.087 767.388,178.215 C779.764,178.742 783.715,182.457 783.715,182.457 L778.594,195.815 C778.594,195.815 813.364,190.946 820.45,201.033 C830.897,215.906 822.782,256.441 805.972,286.995 C805.972,286.995 796.791,287.461 789.86,284.301 C782.93,281.141 775.493,277.453 775.493,277.453 C775.493,277.453 798.805,240.763 789.092,225.498 C781.829,214.084 770.291,219.816 770.291,219.816 C770.291,219.816 764.81,234.795 763.821,245.929 C762.844,256.94 764.913,273.538 764.913,273.538 C764.913,273.538 758.292,275.774 749.877,275.774 C741.462,275.774 734.421,274.899 734.421,274.899 C734.421,274.899 736.108,243.536 737.378,231.214 C739.894,206.801 752.244,178.692 752.244,178.692 C755.229,178.013 758.353,178.093 761.395,178.063 z M761.181,185.06 C757.801,185.103 759.148,185.042 757.14,185.154 L756.37,187.09 C754.627,191.548 752.881,196.403 751.254,201.477 C748.762,209.249 746.782,216.809 745.506,223.853 C744.996,226.664 744.606,229.362 744.341,231.931 C744.109,234.177 743.851,237.208 743.57,240.912 C743.343,243.921 743.105,247.334 742.858,251.073 C742.51,256.365 742.164,262.039 741.836,267.714 L741.792,268.492 C746.393,268.767 743.698,268.643 749.877,268.774 C752.369,268.758 754.868,268.578 757.323,268.13 L757.262,267.456 C756.901,263.23 756.656,259.038 756.582,255.088 C756.514,251.466 756.594,248.187 756.849,245.31 C757.065,242.873 757.472,240.229 758.043,237.402 C758.626,234.513 759.371,231.486 760.238,228.38 C760.995,225.674 761.803,223.054 762.612,220.615 C763.101,219.14 763.487,218.04 763.717,217.411 L764.676,214.789 L767.176,213.547 C767.417,213.428 767.747,213.278 768.161,213.109 C768.775,212.859 769.458,212.616 770.204,212.392 C775.073,210.932 780.33,210.845 785.465,213.172 C789.213,214.871 792.45,217.735 794.998,221.74 C799.627,229.015 799.377,238.667 795.894,250.225 C794.396,255.196 792.318,260.398 789.805,265.714 C786.468,272.422 787.996,269.53 785.315,274.44 C787.531,275.506 785.907,274.728 790.198,276.749 C790.625,276.948 791.046,277.143 791.46,277.334 C791.904,277.538 792.338,277.738 792.765,277.932 C793.664,278.342 794.707,278.699 795.868,278.997 C799.734,279.776 797.766,279.467 801.775,279.911 C809.665,264.226 815.631,247.188 817.615,229.666 C818.518,221.696 819.132,212.175 814.721,205.057 C814.349,204.526 812.94,203.732 810.501,203.069 C807.734,202.316 804.114,201.862 799.886,201.704 C795.04,201.523 789.769,201.734 784.587,202.199 C783.224,202.322 781.976,202.453 780.872,202.583 C780.224,202.66 779.779,202.717 779.565,202.747 L767.809,204.394 L772.058,193.309 L774.784,186.199 C772.274,185.542 769.671,185.354 767.091,185.208 C763.686,185.083 765.656,185.142 761.181,185.06 z" fill="#FFFFFF"/>
    <path d="M752.744,179.192 C752.744,179.192 740.394,207.301 737.878,231.714 C736.608,244.036 734.921,275.399 734.921,275.399 C734.921,275.399 741.962,276.274 750.377,276.274 C758.792,276.274 765.413,274.038 765.413,274.038 C765.413,274.038 763.344,257.44 764.322,246.429 C765.31,235.295 770.791,220.316 770.791,220.316 C770.791,220.316 782.329,214.584 789.592,225.998 C799.305,241.263 775.993,277.953 775.993,277.953 C775.993,277.953 783.43,281.641 790.36,284.801 C797.291,287.961 806.472,287.495 806.472,287.495 C823.282,256.941 831.397,216.406 820.95,201.533 C813.864,191.446 779.094,196.315 779.094,196.315 L784.215,182.957 C784.215,182.957 780.264,179.242 767.888,178.715 C755.513,178.188 752.744,179.192 752.744,179.192 z" fill-opacity="0" stroke="#000000" stroke-width="10"/>
  </g>
</svg>
