<?xml version="1.0" encoding="UTF-8"?>
<!DOCTYPE svg PUBLIC "-//W3C//DTD SVG 1.1//EN" "http://www.w3.org/Graphics/SVG/1.1/DTD/svg11.dtd">
<svg version="1.1" xmlns="http://www.w3.org/2000/svg" xmlns:xlink="http://www.w3.org/1999/xlink" x="0" y="0" width="500" height="500" viewBox="0, 0, 500, 500">
  <g id="Splatter">
    <path d="M106.694,185.932 C107.661,184.965 105.722,167.497 112.163,158.995 C118.604,150.493 131.851,146.339 133.074,141.523 C133.827,138.555 132.216,134.095 130.86,129.939 C129.504,125.783 128.405,121.931 130.183,120.18 C132.977,117.429 139.811,121.244 147.227,124.906 C154.642,128.568 162.639,132.077 167.758,128.717 C171.592,126.201 166.964,116.119 162.953,107.023 C158.943,97.927 155.549,89.818 161.853,91.245 C170.57,98.691 178.319,104.648 184.184,108.67 C190.05,112.692 194.033,114.78 195.216,114.488 C203.865,112.36 204.884,107.422 204.314,102.64 C203.745,97.858 201.589,93.231 203.887,91.722 C206.305,90.135 212.507,95.693 219.701,100.47 C226.894,105.246 235.079,109.241 241.462,104.528 C243.869,102.751 245.24,90.425 246.949,78.481 C248.659,66.537 250.707,54.975 254.468,54.727 C257.953,54.498 258.596,68.835 260.582,83.775 C262.568,98.715 265.896,114.257 274.75,116.437 C290.549,120.326 300.386,113.269 306.407,105.323 C312.427,97.377 314.631,88.543 315.166,88.876 C317.608,90.401 313.399,100.779 311.045,111.99 C308.691,123.201 308.192,135.244 318.056,140.1 C322.627,142.35 326.95,146.276 331.582,149.454 C336.214,152.633 341.154,155.065 346.959,154.329 C353.603,153.487 355.704,148.982 357.879,145.203 C360.055,141.425 362.303,138.373 369.242,140.436 C374.87,144.533 364.871,150.77 356.221,157.447 C347.572,164.123 340.271,171.24 351.295,177.095 C354.572,179.009 359.088,180.912 363.755,182.336 C368.422,183.761 373.24,184.707 377.123,184.707 C377.846,184.707 385.479,184.227 392.932,183.925 C400.385,183.623 407.657,183.498 407.657,184.21 C407.657,186.25 399.108,188.263 390.318,190.005 C381.528,191.747 374.331,191.466 371.527,194.17 C368.236,197.697 370.548,201.338 371.698,208.811 C372.849,216.284 375.252,224.731 379.907,229.759 C384.172,234.365 392.873,233.853 422.215,239.824 C447.865,245.043 469.982,249.889 468.276,252.619 C469.3,255.348 440.701,244.341 418.633,240.165 C396.564,235.989 379.65,234.39 380.461,239.261 C377.1,258.601 384.737,269.556 393.066,276.82 C401.395,284.084 410.417,287.657 409.827,292.233 C408.168,296.332 402.244,295.042 395.642,294.435 C389.04,293.829 381.76,293.905 377.389,300.736 C356.755,327.563 363.95,336.712 374.67,341.967 C385.39,347.222 399.635,348.583 393.102,359.834 C388.203,361.83 381.375,355.021 375.148,348.531 C368.922,342.041 363.296,335.871 360.801,339.147 C348.659,349.63 346.67,358.194 347.342,364.321 C348.014,370.448 351.347,374.139 349.85,374.876 C347.082,376.239 342.973,375.883 338.901,375.187 C334.83,374.49 330.794,373.453 328.172,373.453 C327.049,373.453 324.023,376.625 320.984,379.99 C317.945,383.355 314.894,386.912 313.72,387.682 C311.666,389.03 307.692,388.484 304.231,388.408 C300.771,388.331 297.824,388.724 297.824,391.951 C297.824,393.225 296.609,395.119 297.449,402.475 C299.72,422.341 312.161,426.119 309.219,428.851 C305.856,430.953 304.385,424.963 301.127,420.444 C293.983,404.952 291.565,405.102 287.992,401.319 C283.294,396.345 278.618,394.083 275.149,394.764 C271.679,395.446 268.572,397.985 267.475,399.065 C248.694,417.556 240.195,417.346 234.319,413.33 C228.442,409.313 225.188,401.49 216.894,404.757 C215.049,405.483 213.532,406.941 212.151,408.378 C210.77,409.815 209.524,411.23 208.223,411.871 C206.967,412.489 203.395,411.961 199.936,411.542 C196.477,411.123 193.131,410.814 192.326,411.871 C191.185,413.369 190.52,421.907 189.811,429.763 C189.101,437.62 188.348,444.796 187.028,443.571 C184.459,444.796 182.221,431.687 180.239,418.018 C178.257,404.349 176.531,390.12 174.984,389.105 C173.652,388.231 171.483,388.586 169.286,388.982 C167.089,389.378 164.865,389.815 163.422,389.105 C158.495,385.31 144.836,395.446 131.924,408.155 C119.012,420.863 109.773,435.846 104.907,442.642 C95.591,447.61 92.874,444.754 92.624,440.622 C92.375,436.49 94.593,431.081 95.147,430.945 C94.741,423.238 116.791,417.775 131.618,404.334 C146.445,390.893 158.045,376.297 148.727,370.793 C145.933,369.143 144.236,367.086 142.67,365.024 C141.105,362.963 139.673,360.896 137.409,359.224 C134.763,357.27 127.176,358.588 120.25,359.38 C113.325,360.171 111.738,361.98 107.061,356.379 C99.501,347.324 116.901,336.65 116.625,333.764 C116.349,330.879 113.848,331.262 112.841,330.767 C108.934,331.604 105.325,335.147 102.898,332.232 C100.471,329.317 102.321,326.176 97.07,322.549 C94.513,320.783 92.512,320.879 88.766,320.696 C85.021,320.514 71.617,329.478 70.021,327.906 C66.185,324.13 76.654,316.082 82.71,309.449 C94.134,284.016 84.856,282.626 80.707,278.745 C69.724,263.641 74.544,258.909 79.062,252.693 C83.58,246.476 87.796,238.775 85.383,226.896 C83.811,219.158 69.291,216.052 55.739,212.614 C42.187,209.175 29.603,205.404 31.905,196.338 C34.401,189.947 48.654,196.046 62.511,203.594 C76.367,211.142 89.826,220.138 90.733,219.543 C94.444,217.107 95.241,214.721 95.847,212.218 C96.452,209.716 101.494,200.759 104.438,197.86 C107.008,191.756 90.631,178.907 76.068,161.431 C61.505,143.955 44.126,128.19 40.959,123.893 z" fill="#000000"/>
  </g>
</svg>
