<?xml version="1.0" encoding="UTF-8"?>
<!DOCTYPE svg PUBLIC "-//W3C//DTD SVG 1.1//EN" "http://www.w3.org/Graphics/SVG/1.1/DTD/svg11.dtd">
<svg version="1.1" xmlns="http://www.w3.org/2000/svg" xmlns:xlink="http://www.w3.org/1999/xlink" x="0" y="0" width="612" height="792" viewBox="0, 0, 612, 792">
  <g id="体">
    <g>
      <path d="M298.011,75.696 C154.476,75.696 18.442,377.531 19.861,485.462 C20.863,561.634 154.481,541.198 154.481,541.198 C154.481,541.198 115.89,711.412 155.087,737.698 C170.618,748.113 202.754,759.504 213.734,740.953 C224.715,722.401 241.275,681.718 241.275,681.718 C241.275,681.718 235.349,719.797 247.624,741.604 C259.899,763.41 294.236,766.664 309.746,744.858 C325.257,723.052 335.631,682.369 335.631,682.369 C335.631,682.369 340.181,718.495 352.456,742.255 C364.731,766.014 392.597,755.599 406.813,740.302 C421.029,725.005 422.438,683.02 422.438,683.02 C422.438,683.02 428.084,719.146 446.287,741.604 C464.489,764.061 507.474,760.859 520.057,734.443 C534.941,703.199 486.552,532.507 486.552,532.507 C486.552,532.507 596.225,552.606 593.18,485.137 C588.712,386.096 458.519,75.696 298.011,75.696 z" fill="#54FF0F"/>
      <path d="M298.011,75.696 C154.476,75.696 18.442,377.531 19.861,485.462 C20.863,561.634 154.481,541.198 154.481,541.198 C154.481,541.198 115.89,711.412 155.087,737.698 C170.618,748.113 202.754,759.504 213.734,740.953 C224.715,722.401 241.275,681.718 241.275,681.718 C241.275,681.718 235.349,719.797 247.624,741.604 C259.899,763.41 294.236,766.664 309.746,744.858 C325.257,723.052 335.631,682.369 335.631,682.369 C335.631,682.369 340.181,718.495 352.456,742.255 C364.731,766.014 392.597,755.599 406.813,740.302 C421.029,725.005 422.438,683.02 422.438,683.02 C422.438,683.02 428.084,719.146 446.287,741.604 C464.489,764.061 507.474,760.859 520.057,734.443 C534.941,703.199 486.552,532.507 486.552,532.507 C486.552,532.507 596.225,552.606 593.18,485.137 C588.712,386.096 458.519,75.696 298.011,75.696 z" fill-opacity="0" stroke="#000000" stroke-width="22" stroke-linejoin="round"/>
    </g>
    <path d="M231.654,561.696 C214.66,561.696 200.883,550.876 200.883,537.53 C200.883,524.184 214.66,513.365 231.654,513.365 C248.648,513.365 262.425,524.184 262.425,537.53 C262.425,550.876 248.648,561.696 231.654,561.696 z" fill="#08C319"/>
    <path d="M290.529,613.696 C275.008,613.696 262.425,597.355 262.425,577.197 C262.425,557.039 275.008,540.698 290.529,540.698 C306.05,540.698 318.633,557.039 318.633,577.197 C318.633,597.355 306.05,613.696 290.529,613.696 z" fill="#08C319"/>
    <path d="M361.896,660.857 C346.374,660.857 333.792,644.516 333.792,624.358 C333.792,604.2 346.374,587.859 361.896,587.859 C377.417,587.859 390,604.2 390,624.358 C390,644.516 377.417,660.857 361.896,660.857 z" fill="#08C319"/>
    <path d="M170.626,640.946 C165.24,626.389 176.199,608.917 195.105,601.922 C214.01,594.928 233.702,601.058 239.088,615.615 C244.474,630.172 233.515,647.643 214.609,654.638 C195.704,661.633 176.012,655.503 170.626,640.946 z" fill="#08C319"/>
    <path d="M295.635,680.947 C280.517,680.947 268.261,667.71 268.261,651.383 C268.261,635.055 280.517,621.818 295.635,621.818 C310.753,621.818 323.009,635.055 323.009,651.383 C323.009,667.71 310.753,680.947 295.635,680.947 z" fill="#08C319"/>
    <path d="M470.482,668.19 C456.131,674.104 438.271,663.789 430.591,645.152 C422.91,626.515 428.317,606.613 442.668,600.698 C457.018,594.784 474.878,605.098 482.559,623.736 C490.239,642.373 484.832,662.275 470.482,668.19 z" fill="#08C319"/>
    <path d="M359.229,550.667 C342.235,550.667 328.458,539.847 328.458,526.501 C328.458,513.155 342.235,502.336 359.229,502.336 C376.223,502.336 390,513.155 390,526.501 C390,539.847 376.223,550.667 359.229,550.667 z" fill="#08C319"/>
    <path d="M379.082,585.748 C373.696,571.191 384.655,553.72 403.561,546.725 C422.466,539.73 442.158,545.86 447.544,560.417 C452.93,574.974 441.971,592.445 423.065,599.44 C404.16,606.435 384.468,600.305 379.082,585.748 z" fill="#08C319"/>
  </g>
  <g id="目">
    <g>
      <path d="M154.486,368.98 C155.567,223.663 310.381,318.154 310.381,318.154 C310.381,318.154 461.409,218.445 460.061,362.686 C458.824,495.048 306.67,413.405 306.67,413.405 C306.67,413.405 153.58,490.717 154.486,368.98 z" fill="#FFFFFF"/>
      <path d="M154.486,368.98 C155.567,223.663 310.381,318.154 310.381,318.154 C310.381,318.154 461.409,218.445 460.061,362.686 C458.824,495.048 306.67,413.405 306.67,413.405 C306.67,413.405 153.58,490.717 154.486,368.98 z" fill-opacity="0" stroke="#000000" stroke-width="22" stroke-linejoin="bevel" stroke-miterlimit="1"/>
    </g>
  </g>
  <g id="目玉">
    <g>
      <path d="M237.127,382.044 C216.282,382.044 199.383,365.23 199.383,344.489 C199.383,323.748 216.282,306.934 237.127,306.934 C257.973,306.934 274.872,323.748 274.872,344.489 C274.872,365.23 257.973,382.044 237.127,382.044 z" fill="#000000"/>
      <path d="M237.127,382.044 C216.282,382.044 199.383,365.23 199.383,344.489 C199.383,323.748 216.282,306.934 237.127,306.934 C257.973,306.934 274.872,323.748 274.872,344.489 C274.872,365.23 257.973,382.044 237.127,382.044 z" fill-opacity="0" stroke="#000000" stroke-width="22"/>
    </g>
    <g>
      <path d="M172.184,532.507 L172.184,532.507" fill="#000000"/>
      <path d="M172.184,532.507 L172.184,532.507" fill-opacity="0" stroke="#000000" stroke-width="22"/>
    </g>
    <g>
      <path d="M382.858,380.044 C362.013,380.044 345.114,363.23 345.114,342.489 C345.114,321.748 362.013,304.934 382.858,304.934 C403.704,304.934 420.602,321.748 420.602,342.489 C420.602,363.23 403.704,380.044 382.858,380.044 z" fill="#000000"/>
      <path d="M382.858,380.044 C362.013,380.044 345.114,363.23 345.114,342.489 C345.114,321.748 362.013,304.934 382.858,304.934 C403.704,304.934 420.602,321.748 420.602,342.489 C420.602,363.23 403.704,380.044 382.858,380.044 z" fill-opacity="0" stroke="#000000" stroke-width="22"/>
    </g>
  </g>
</svg>
